<?xml version="1.0" encoding="UTF-8"?>
<svg width="24px" height="24px" viewBox="0 0 24 24" version="1.1" xmlns="http://www.w3.org/2000/svg" xmlns:xlink="http://www.w3.org/1999/xlink">
    <!-- Generator: Sketch 52.5 (67469) - http://www.bohemiancoding.com/sketch -->
    <title>Group 45</title>
    <desc>Created with Sketch.</desc>
    <g id="Page-2" stroke="none" stroke-width="1" fill="#c4302b" fill-rule="evenodd" >
        <g id="Home-Dropdown" transform="translate(-1259.000000, -2026.000000)">
            <g id="Group-47" transform="translate(0.000000, 1700.000000)">
                <g id="Group-46" transform="translate(1127.000000, 326.000000)">
                    <g id="Group-45" transform="translate(132.000000, 0.000000)">
                        <g id="Group-16" fill-rule="nonzero">
                            <g id="youtube-copy" fill="#484848">
                                <path d="M12,0 C5.37280818,0 0,5.37256266 0,12 C0,18.6274373 5.37280818,24 12,24 C18.6271918,24 24,18.6274373 24,12 C24,5.37256266 18.6271918,0 12,0 Z" id="Shape"></path>
                            </g>
                            <path d="M20.2238972,10.436124 C19.5363055,11.8407403 18.1007227,12.2684546 16.6971396,13.0535565 C16.6971396,14.1593908 16.6971396,15.6567105 16.6971396,16.0854904 C16.6971396,16.5129916 16.1801458,19 14.2087694,19 C12.2367931,19 11.5860009,17.7967738 11.5860009,17.2985197 C11.5860009,17.0553597 11.5860009,15.7587908 11.5860009,14.4890739 C11.3924032,14.439419 11.2018055,14.3686661 11.0182077,14.2663727 C11.0182077,15.4090753 11.0182077,16.7998393 11.0182077,17.2985197 C11.0182077,17.7980525 10.2834165,18.5109097 9.31462817,18.5109097 C8.3458398,18.5109097 6.47506225,17.0496057 6.47506225,16.0854904 C6.47506225,15.1222275 6.47506225,12.8027245 6.47506225,12.8027245 C6.47506225,12.8027245 3.88269336,11.721398 3.28110058,10.9362961 C2.67910781,10.150768 2.37851141,9.83003557 2.5459094,9.36737103 C2.70670747,8.91919805 4.65108414,10.6509401 5.78687051,10.9362961 C6.92385686,11.2218652 8.89463321,11.3648629 9.73042318,11.3294864 C10.5662132,11.2936837 11.0342075,11.650432 11.5016019,12.1135227 C11.5266016,12.1382436 11.5558013,12.1644563 11.5858009,12.1904559 C11.5858009,11.9773446 11.5858009,11.8409534 11.5858009,11.8409534 C11.5858009,11.4134522 12.6551881,11.2346519 13.2899805,11.2346519 C13.9253728,11.2346519 15.7951504,11.2346519 16.1289464,11.2346519 C16.4627424,11.2346519 19.0539113,10.3299946 19.6557041,9.61564565 C20.2570969,8.90278848 20.8704895,9.11611285 20.2238972,10.436124 Z M14.2373691,10.244537 C15.3351559,10.244537 16.2251452,9.29470009 16.2251452,8.12216193 C16.2251452,6.94983689 15.3351559,6 14.2373691,6 C13.1401823,6 12.2497929,6.94983689 12.2497929,8.12216193 C12.2499929,9.29470009 13.1401823,10.244537 14.2373691,10.244537 Z M8.99963195,10.244537 C10.0974188,10.244537 10.9874081,9.29470009 10.9874081,8.12216193 C10.9874081,6.94983689 10.0974188,6 8.99963195,6 C7.90184513,6 7.0120558,6.94983689 7.0120558,8.12216193 C7.0120558,9.29470009 7.90144513,10.244537 8.99963195,10.244537 Z" id="SlideShare" fill="#ffff"></path>
                        </g>
                        <g id="33588" transform="translate(2.000000, 6.000000)"></g>
                    </g>
                </g>
            </g>
        </g>
    </g>
</svg>