<?xml version="1.0" encoding="UTF-8"?>
<svg width="24px" height="24px" viewBox="0 0 24 24" version="1.1" xmlns="http://www.w3.org/2000/svg" xmlns:xlink="http://www.w3.org/1999/xlink">
    <!-- Generator: Sketch 48.2 (47327) - http://www.bohemiancoding.com/sketch -->
    <title>49411</title>
    <desc>Created with Sketch.</desc>
    <defs></defs>
    <g id="01-GeM-Landing-Copy-2" stroke="none" stroke-width="1" fill="none" fill-rule="evenodd" transform="translate(-1175.000000, -3314.000000)">
        <g id="Group-33" transform="translate(0.000000, 3041.000000)" fill="#c4302b" fill-rule="nonzero">
            <g id="Group-12" transform="translate(1111.000000, 273.000000)">
                <g id="49411" transform="translate(64.000000, 0.000000)">
                    <path d="M9.6,14.4 C11.4718563,13.4668711 13.327378,12.5423301 15.2,11.6087105 C13.3217629,10.6665031 11.4667517,9.73656399 9.6,8.8 C9.6,10.673128 9.6,12.5271174 9.6,14.4 Z" id="Shape"></path>
                    <path d="M12,0 C5.37280818,0 0,5.37256266 0,12 C0,18.6274373 5.37280818,24 12,24 C18.6271918,24 24,18.6274373 24,12 C24,5.37256266 18.6271918,0 12,0 Z M20.1762046,16.0054834 C19.968491,16.9065575 19.2314271,17.5711918 18.3443478,17.6701381 C16.2433964,17.9051049 14.117156,17.9063325 11.999509,17.9051049 C9.88186189,17.9063325 7.75513043,17.9051049 5.65368798,17.6701381 C4.7666087,17.5711918 4.03003581,16.9065575 3.8228133,16.0054834 C3.52744757,14.7218824 3.52744757,13.3211662 3.52744757,12 C3.52744757,10.6788338 3.53088491,9.2776266 3.82625064,7.99451662 C4.03347315,7.09344246 4.77004604,6.42856266 5.65712532,6.32937084 C7.75856777,6.09464962 9.88529923,6.09342199 12.0029463,6.09464962 C14.1201023,6.09342199 16.2468338,6.09464962 18.3475396,6.32937084 C19.23511,6.42856266 19.9721739,7.09319693 20.1793964,7.99451662 C20.4747621,9.27787212 20.4723069,10.6788338 20.4723069,12 C20.4723069,13.3211662 20.4715703,14.7221279 20.1762046,16.0054834 Z" id="Shape"></path>
                </g>
            </g>
        </g>
    </g>
</svg>